<?xml version="1.0" encoding="utf-8"?>
<!-- Generator: Adobe Illustrator 23.0.4, SVG Export Plug-In . SVG Version: 6.00 Build 0)  -->
<svg version="1.1" id="Layer_1" xmlns="http://www.w3.org/2000/svg" xmlns:xlink="http://www.w3.org/1999/xlink" x="0px" y="0px"
	 viewBox="0 0 1033 259" style="enable-background:new 0 0 1033 259;" xml:space="preserve">
<style type="text/css">
	.st0{fill:none;stroke:#805AD5;stroke-width:7;stroke-linecap:round;stroke-linejoin:round;stroke-miterlimit:10;}
	.st1{fill:#CBD5E0;}
</style>
<polygon class="st0" points="89.04,55.24 12,11 55.83,119 147.48,247.82 147.48,55.24 "/>
<polygon class="st0" points="87.94,55.42 38.79,168.63 146.38,248 146.38,55.42 "/>
<g>
	<path class="st1" d="M211.66,184.67h32.25v11.76h-47.32v-93.32h15.07V184.67z"/>
	<path class="st1" d="M256.2,96.11c1.76-1.67,4.1-2.51,7.01-2.51c2.91,0,5.26,0.84,7.07,2.51c1.8,1.67,2.71,3.79,2.71,6.34
		c0,2.56-0.9,4.63-2.71,6.21c-1.81,1.59-4.16,2.38-7.07,2.38c-2.91,0-5.24-0.79-7.01-2.38c-1.76-1.59-2.64-3.66-2.64-6.21
		C253.56,99.9,254.44,97.78,256.2,96.11z M270.74,123.6v72.83h-15.07V123.6H270.74z"/>
	<path class="st1" d="M304.05,98.62v97.81h-15.07V98.62H304.05z"/>
	<path class="st1" d="M368.42,127.57c4.67,3.26,7.97,7.58,9.91,12.95V123.6h15.07v72.83h-15.07v-16.92
		c-1.94,5.38-5.24,9.69-9.91,12.95c-4.67,3.26-10.31,4.89-16.92,4.89c-6.34,0-12.01-1.5-16.98-4.49c-4.98-2.99-8.88-7.31-11.7-12.95
		c-2.82-5.64-4.23-12.29-4.23-19.96c0-7.58,1.41-14.19,4.23-19.83c2.82-5.64,6.72-9.96,11.7-12.95c4.98-2.99,10.64-4.49,16.98-4.49
		C358.11,122.68,363.75,124.31,368.42,127.57z M340.06,142.3c-4.01,4.28-6.01,10.16-6.01,17.65c0,7.49,2,13.37,6.01,17.65
		c4.01,4.28,9.36,6.41,16.06,6.41c4.23,0,8.02-0.99,11.37-2.97c3.35-1.98,5.99-4.78,7.93-8.39c1.94-3.61,2.91-7.84,2.91-12.69
		c0-4.76-0.97-8.97-2.91-12.62c-1.94-3.66-4.58-6.48-7.93-8.46c-3.35-1.98-7.14-2.97-11.37-2.97
		C349.43,135.89,344.07,138.03,340.06,142.3z"/>
	<path class="st1" d="M497.55,103.11v12.16H457.5v28.95h33.04v11.63H457.5v40.58h-15.07v-93.32H497.55z"/>
	<path class="st1" d="M578.18,123.6v72.83h-15.2v-15.86c-1.85,5.38-5.07,9.54-9.65,12.49c-4.58,2.95-9.91,4.43-15.99,4.43
		c-8.46,0-15.25-2.73-20.36-8.2c-5.11-5.46-7.67-13.26-7.67-23.4v-42.3h15.07v40.71c0,6.61,1.67,11.7,5.02,15.27
		c3.35,3.57,7.93,5.35,13.75,5.35c5.99,0,10.79-1.94,14.41-5.82c3.61-3.88,5.42-9.52,5.42-16.92v-38.6H578.18z"/>
	<path class="st1" d="M652.07,130.14c6.17,4.98,10,11.74,11.5,20.29h-15.99c-0.88-4.58-3.02-8.17-6.41-10.77
		c-3.39-2.6-7.65-3.9-12.76-3.9c-5.82,0-10.66,2.05-14.54,6.15c-3.88,4.1-5.82,10.11-5.82,18.04s1.94,13.97,5.82,18.11
		c3.88,4.14,8.72,6.21,14.54,6.21c5.11,0,9.36-1.32,12.76-3.97c3.39-2.64,5.53-6.26,6.41-10.84h15.99
		c-1.5,8.55-5.33,15.33-11.5,20.36c-6.17,5.02-13.97,7.53-23.4,7.53c-7.05,0-13.28-1.5-18.7-4.49c-5.42-2.99-9.67-7.31-12.76-12.95
		c-3.09-5.64-4.63-12.29-4.63-19.96c0-7.58,1.54-14.19,4.63-19.83c3.08-5.64,7.34-9.96,12.76-12.95c5.42-2.99,11.65-4.49,18.7-4.49
		C638.1,122.68,645.9,125.17,652.07,130.14z"/>
	<path class="st1" d="M739.17,130.61c5.11,5.46,7.67,13.26,7.67,23.4v42.43h-15.07v-40.84c0-6.52-1.68-11.57-5.02-15.13
		c-3.35-3.57-7.93-5.35-13.75-5.35c-5.99,0-10.79,1.92-14.41,5.75c-3.61,3.83-5.42,9.45-5.42,16.85v38.73H678.1V98.62h15.07v40.98
		c1.94-5.46,5.2-9.69,9.78-12.69c4.58-2.99,9.87-4.49,15.86-4.49C727.27,122.41,734.06,125.14,739.17,130.61z"/>
	<path class="st1" d="M831.56,162.99h-56.04c0.26,7.49,2.33,13.04,6.21,16.65c3.88,3.61,8.68,5.42,14.41,5.42
		c5.02,0,9.27-1.28,12.76-3.83c3.48-2.55,5.62-5.95,6.41-10.18h16.13c-0.97,5.11-3,9.65-6.08,13.61c-3.09,3.97-7.09,7.07-12.03,9.32
		c-4.94,2.25-10.44,3.37-16.52,3.37c-7.05,0-13.28-1.5-18.7-4.49c-5.42-2.99-9.67-7.31-12.76-12.95
		c-3.09-5.64-4.63-12.29-4.63-19.96c0-7.58,1.54-14.19,4.63-19.83c3.08-5.64,7.34-9.96,12.76-12.95c5.42-2.99,11.65-4.49,18.7-4.49
		c7.14,0,13.37,1.48,18.7,4.43c5.33,2.95,9.43,7.01,12.29,12.16c2.86,5.16,4.3,10.9,4.3,17.25
		C832.09,158.98,831.91,161.14,831.56,162.99z M814.45,144.15c-1.81-3.22-4.27-5.59-7.4-7.14c-3.13-1.54-6.54-2.31-10.24-2.31
		c-5.9,0-10.84,1.81-14.8,5.42c-3.97,3.61-6.13,8.94-6.48,15.99h41.37C817.07,151.36,816.25,147.37,814.45,144.15z"/>
	<path class="st1" d="M891.11,129.22c5.15,4.36,8.3,10.2,9.45,17.51h-14.28c-0.62-3.97-2.31-7.16-5.09-9.58
		c-2.78-2.42-6.46-3.63-11.04-3.63c-3.79,0-6.72,0.9-8.79,2.71c-2.07,1.81-3.11,4.25-3.11,7.34c0,2.29,0.75,4.14,2.25,5.55
		c1.5,1.41,3.37,2.51,5.62,3.3c2.25,0.79,5.44,1.67,9.58,2.64c5.46,1.23,9.89,2.51,13.28,3.83c3.39,1.32,6.3,3.42,8.72,6.28
		c2.42,2.86,3.63,6.76,3.63,11.7c0,6.08-2.31,11.02-6.94,14.8c-4.63,3.79-10.86,5.68-18.7,5.68c-9.08,0-16.41-2.11-22.01-6.34
		c-5.6-4.23-8.97-10.13-10.11-17.71h14.67c0.44,3.97,2.2,7.18,5.29,9.65c3.08,2.47,7.14,3.7,12.16,3.7c3.61,0,6.45-0.95,8.53-2.84
		c2.07-1.89,3.11-4.3,3.11-7.2c0-2.55-0.79-4.58-2.38-6.08c-1.59-1.5-3.57-2.66-5.95-3.5c-2.38-0.84-5.64-1.7-9.78-2.58
		c-5.29-1.23-9.58-2.47-12.89-3.7c-3.3-1.23-6.13-3.24-8.46-6.01c-2.34-2.78-3.5-6.54-3.5-11.3c0-6.17,2.31-11.17,6.94-15
		c4.63-3.83,11.04-5.75,19.23-5.75C879.1,122.68,885.95,124.86,891.11,129.22z"/>
</g>
</svg>
